# xmcd
#
# Track frame offsets:
#	150
#	13884
#	28444
#	42578
#	57320
#	69511
#	80118
#	94436
#	106421
#	119758
#	133687
#	147053
#	161374
#	176663
#	189420
#	202483
#	213821
#	227436
#	241491
#	252958
#	265637
#
# Disc length: 3731 seconds
#
# Revision: 0
# Processed by: cddbd v1.5.2PL0 Copyright (c) Steve Scherf et al.
# Submitted via: EasyCDDAExtractor 15.3.0.1
#
DISCID=3f0e9115
DTITLE=John Lee Hooker - Legends
DYEAR=1900
DGENRE=Blues
TTITLE0=My Baby Don't Love Me
TTITLE1=Four Women In My Life
TTITLE2=Dreamin' Blues
TTITLE3=Don't Go Baby
TTITLE4=Guitar Lovin' Man
TTITLE5=Howlin' Wolf
TTITLE6=Goin' South
TTITLE7=Love My Baby
TTITLE8=I Need Lovin'
TTITLE9=It's Stormin' and Rainin'
TTITLE10=Union Station Blues
TTITLE11=Boogie Chillin'
TTITLE12=Just Me and My Telephone
TTITLE13=Leave My Wife Alone
TTITLE14=Rock House Boogie
TTITLE15=Me and A Woman
TTITLE16=Need Somebody
TTITLE17=I'm In The Mood
TTITLE18=Shake Holler and Run
TTITLE19=Huckle Up Baby
TTITLE20=Whislin' and Moanin' Blues
EXTD=
EXTT0=
EXTT1=
EXTT2=
EXTT3=
EXTT4=
EXTT5=
EXTT6=
EXTT7=
EXTT8=
EXTT9=
EXTT10=
EXTT11=
EXTT12=
EXTT13=
EXTT14=
EXTT15=
EXTT16=
EXTT17=
EXTT18=
EXTT19=
EXTT20=
PLAYORDER=
